# xmcd CD database file
#
# Track frame offsets:
#	187
#	19690
#	41670
#	61187
#
# Disc length: 1105 seconds
#
# Revision: 0
# Processed by: cddbd v1.5.1PL0 Copyright (c) Steve Scherf et al.
# Submitted via: CDex 1.51
#
DISCID=29044f04
DTITLE=NoB - 君のために僕のために
DYEAR=1994
DGENRE=Pop
TTITLE0=君のために僕のために
TTITLE1=This Time
TTITLE2=君のために僕のために [Off Vocal]
TTITLE3=This Time [Off Vocal]
EXTD=YEAR: 1994
EXTT0=
EXTT1=
EXTT2=
EXTT3=
PLAYORDER=
